<?xml version="1.0" encoding="UTF-8"?>
<svg fill="#333" width="406.99mm" height="105.43mm" version="1.1" viewBox="0 0 406.99 105.43" xmlns="http://www.w3.org/2000/svg" xmlns:cc="http://creativecommons.org/ns#" xmlns:dc="http://purl.org/dc/elements/1.1/" xmlns:rdf="http://www.w3.org/1999/02/22-rdf-syntax-ns#">
 <metadata>
  <rdf:RDF>
   <cc:Work rdf:about="">
    <dc:format>image/svg+xml</dc:format>
    <dc:type rdf:resource="http://purl.org/dc/dcmitype/StillImage"/>
    <dc:title/>
   </cc:Work>
  </rdf:RDF>
 </metadata>
 <g transform="translate(110.12 -102.21)">
  <g fill="#04828B" shape-rendering="auto">
   <path transform="scale(.26458)" d="m392.34 386.29a6.2687 7.5007 0 0 0-6.2676 7.5v72.348h12.537v-64.848h179.76v64.848h12.535v-72.348a6.2687 7.5007 0 0 0-6.2676-7.5z" color="#000000" color-rendering="auto" dominant-baseline="auto" image-rendering="auto" solid-color="#000000" stop-color="#000000" style="font-feature-settings:normal;font-variant-alternates:normal;font-variant-caps:normal;font-variant-east-asian:normal;font-variant-ligatures:normal;font-variant-numeric:normal;font-variant-position:normal;font-variation-settings:normal;inline-size:0;isolation:auto;mix-blend-mode:normal;shape-margin:0;shape-padding:0;text-decoration-color:#000000;text-decoration-line:none;text-decoration-style:solid;text-indent:0;text-orientation:mixed;text-transform:none;white-space:normal"/>
   <path d="m139.89 139.45c-16.297 0-29.553 13.255-29.553 29.553s13.255 29.551 29.553 29.551 29.551-13.253 29.551-29.551-13.253-29.553-29.551-29.553zm0 3.9688c14.153 0 25.582 11.431 25.582 25.584 0 14.153-11.429 25.582-25.582 25.582s-25.584-11.43-25.584-25.582c0-14.153 11.431-25.584 25.584-25.584z" color="#000000" color-rendering="auto" dominant-baseline="auto" image-rendering="auto" solid-color="#000000" stop-color="#000000" style="font-feature-settings:normal;font-variant-alternates:normal;font-variant-caps:normal;font-variant-east-asian:normal;font-variant-ligatures:normal;font-variant-numeric:normal;font-variant-position:normal;font-variation-settings:normal;inline-size:0;isolation:auto;mix-blend-mode:normal;shape-margin:0;shape-padding:0;text-decoration-color:#000000;text-decoration-line:none;text-decoration-style:solid;text-indent:0;text-orientation:mixed;text-transform:none;white-space:normal"/>
   <path d="m139.89 151.52c-9.6322 0-17.484 7.8522-17.484 17.484 0 9.6322 7.8522 17.482 17.484 17.482s17.482-7.8503 17.482-17.482c0-9.6322-7.8503-17.484-17.482-17.484zm0 3.9688c7.4873 0 13.514 6.0284 13.514 13.516s-6.0264 13.514-13.514 13.514-13.516-6.0264-13.516-13.514 6.0283-13.516 13.516-13.516z" color="#000000" color-rendering="auto" dominant-baseline="auto" image-rendering="auto" solid-color="#000000" stop-color="#000000" style="font-feature-settings:normal;font-variant-alternates:normal;font-variant-caps:normal;font-variant-east-asian:normal;font-variant-ligatures:normal;font-variant-numeric:normal;font-variant-position:normal;font-variation-settings:normal;inline-size:0;isolation:auto;mix-blend-mode:normal;shape-margin:0;shape-padding:0;text-decoration-color:#000000;text-decoration-line:none;text-decoration-style:solid;text-indent:0;text-orientation:mixed;text-transform:none;white-space:normal"/>
   <path d="m75.887 130.33a1.9846 1.9846 0 0 0-1.9844 1.9844v10.707a1.9846 1.9846 0 0 0 1.9844 1.9844h31.602a1.9846 1.9846 0 0 0 1.9844-1.9844v-10.707a1.9846 1.9846 0 0 0-1.9844-1.9844h-31.602zm1.9844 3.9688h27.633v6.7383h-27.633v-6.7383z" color="#000000" color-rendering="auto" dominant-baseline="auto" image-rendering="auto" solid-color="#000000" stop-color="#000000" style="font-feature-settings:normal;font-variant-alternates:normal;font-variant-caps:normal;font-variant-east-asian:normal;font-variant-ligatures:normal;font-variant-numeric:normal;font-variant-position:normal;font-variation-settings:normal;inline-size:0;isolation:auto;mix-blend-mode:normal;shape-margin:0;shape-padding:0;text-decoration-color:#000000;text-decoration-line:none;text-decoration-style:solid;text-indent:0;text-orientation:mixed;text-transform:none;white-space:normal"/>
  </g>
  <g stroke-width=".26458" style="font-variant-caps:normal;font-variant-east-asian:normal;font-variant-ligatures:normal;font-variant-numeric:normal" aria-label="SOC">
   <path d="m-89.734 195.26c13.797 0 22.787-7.032 22.787-17.892 0-21.897-34.626-13.174-34.626-29.107 0-6.4979 5.2518-10.058 14.687-10.058 5.2518 0 10.949 1.0682 15.399 2.9374l2.2253-5.7858c-5.2518-2.3143-11.216-3.5605-17.09-3.5605-13.797 0-22.787 6.854-22.787 17.625 0 21.185 34.537 13.263 34.537 29.018 0 6.2309-5.3408 10.236-14.687 10.236-5.6078 0-12.551-1.5132-18.604-4.0056l-2.2253 5.7858c6.854 3.1154 13.797 4.8067 20.384 4.8067z" style="font-variant-caps:normal;font-variant-east-asian:normal;font-variant-ligatures:normal;font-variant-numeric:normal"/>
   <path d="m-30.807 194.99c17.803 0 29.73-12.907 29.73-32.312 0-18.515-11.572-30.887-28.84-30.887-17.536 0-29.196 12.818-29.196 31.956 0 18.782 11.305 31.244 28.306 31.244zm0.89013-6.4089c-12.996 0-21.63-10.325-21.63-25.903 0-14.598 8.2782-24.39 20.74-24.39 13.263 0 22.164 10.147 22.164 25.458 0 14.865-8.5452 24.835-21.274 24.835z" style="font-variant-caps:normal;font-variant-east-asian:normal;font-variant-ligatures:normal;font-variant-numeric:normal"/>
   <path d="m38.978 195.26c5.9639 0 12.195-1.3352 18.07-3.9166l-1.6912-5.4298c-4.4506 1.7803-9.9694 2.8484-14.687 2.8484-14.776 0-24.568-10.504-24.568-26.259 0-15.043 8.9903-24.211 23.855-24.211 4.9847 0 10.593 1.0682 15.31 2.8484l2.1363-5.5188c-4.5397-2.4034-10.949-3.8276-17.001-3.8276-19.138 0-31.867 12.996-31.867 32.401 0 18.604 12.195 31.065 30.442 31.065z" style="font-variant-caps:normal;font-variant-east-asian:normal;font-variant-ligatures:normal;font-variant-numeric:normal"/>
  </g>
  <path fill="#04828B" d="m88.086 151.34a1.9846 1.9846 0 0 0-1.9844 1.9844v40.912a1.9846 1.9846 0 0 0 1.9844 1.9844h7.2012a1.9846 1.9846 0 0 0 1.9844-1.9844v-40.912a1.9846 1.9846 0 0 0-1.9844-1.9844h-7.2012zm1.9844 3.9688h3.2324v36.943h-3.2324v-36.943z" color="#000000" color-rendering="auto" dominant-baseline="auto" image-rendering="auto" shape-rendering="auto" solid-color="#000000" stop-color="#000000" style="font-feature-settings:normal;font-variant-alternates:normal;font-variant-caps:normal;font-variant-east-asian:normal;font-variant-ligatures:normal;font-variant-numeric:normal;font-variant-position:normal;font-variation-settings:normal;inline-size:0;isolation:auto;mix-blend-mode:normal;shape-margin:0;shape-padding:0;text-decoration-color:#000000;text-decoration-line:none;text-decoration-style:solid;text-indent:0;text-orientation:mixed;text-transform:none;white-space:normal"/>
  <g stroke-width=".26458" style="font-variant-caps:normal;font-variant-east-asian:normal;font-variant-ligatures:normal;font-variant-numeric:normal" aria-label="TO">
   <path d="m205.1 194.5h7.3881v-55.366h20.651v-6.4089h-48.601v6.4089h20.562z"/>
   <path d="m267.14 195.12c17.803 0 29.73-12.907 29.73-32.312 0-18.515-11.572-30.887-28.84-30.887-17.536 0-29.196 12.818-29.196 31.956 0 18.782 11.305 31.243 28.306 31.243zm0.89013-6.4089c-12.996 0-21.63-10.325-21.63-25.903 0-14.598 8.2782-24.39 20.74-24.39 13.263 0 22.164 10.147 22.164 25.458 0 14.865-8.5452 24.835-21.274 24.835z"/>
  </g>
  <path fill="#04828B" transform="scale(.26458)" d="m247.86 451.14a7.5007 7.5007 0 0 0-7.5 7.5v318.65a7.5007 7.5007 0 0 0 7.5 7.5h419.62a7.5007 7.5007 0 0 0 7.5-7.5v-318.65a7.5007 7.5007 0 0 0-7.5-7.5h-89.117v15h81.617v303.65h-404.62v-303.65h143.24v-15z" color="#000000" color-rendering="auto" dominant-baseline="auto" image-rendering="auto" shape-rendering="auto" solid-color="#000000" stop-color="#000000" style="font-feature-settings:normal;font-variant-alternates:normal;font-variant-caps:normal;font-variant-east-asian:normal;font-variant-ligatures:normal;font-variant-numeric:normal;font-variant-position:normal;font-variation-settings:normal;inline-size:0;isolation:auto;mix-blend-mode:normal;shape-margin:0;shape-padding:0;text-decoration-color:#000000;text-decoration-line:none;text-decoration-style:solid;text-indent:0;text-orientation:mixed;text-transform:none;white-space:normal"/>
 </g>
</svg>
